<?xml version="1.0" encoding="utf-8"?>
<!-- Simple SVG sprite used as icons replacement for emojis -->
<svg xmlns="http://www.w3.org/2000/svg" style="display:none">
  <symbol id="icon-menu" viewBox="0 0 24 24" fill="currentColor">
    <path d="M4 6h16v2H4V6zm0 5h16v2H4v-2zm0 5h16v2H4v-2z" />
  </symbol>
  <symbol id="icon-note" viewBox="0 0 24 24" fill="currentColor">
    <path d="M4 4h12l4 4v12a1 1 0 0 1-1 1H5a1 1 0 0 1-1-1V5a1 1 0 0 1 1-1zM14 5.5V9h3.5L14 5.5zM7 8h10v2H7V8zm0 4h10v2H7v-2z" />
  </symbol>
  <symbol id="icon-bag" viewBox="0 0 24 24" fill="currentColor">
    <path d="M6 7V6a6 6 0 0 1 12 0v1h1a1 1 0 0 1 1 1v11a2 2 0 0 1-2 2H6a2 2 0 0 1-2-2V8a1 1 0 0 1 1-1h1zm2 0h8V6a4 4 0 0 0-8 0v1z" />
  </symbol>
  <symbol id="icon-chat" viewBox="0 0 24 24" fill="currentColor">
    <path d="M21 6a2 2 0 0 0-2-2H5a2 2 0 0 0-2 2v12l4-3h12a2 2 0 0 0 2-2V6zM7 9h10v2H7V9zM7 12h7v2H7v-2z" />
  </symbol>
  <symbol id="icon-box" viewBox="0 0 24 24" fill="currentColor">
    <path d="M21 8l-9-4-9 4v8a2 2 0 0 0 1 1.73L12 21l8-3.27A2 2 0 0 0 21 16V8zM12 3l7.5 3.33-7.5 3.33L4.5 6.33 12 3z" />
  </symbol>
  <symbol id="icon-clip" viewBox="0 0 24 24" fill="currentColor">
    <path d="M7 13a5 5 0 0 0 10 0V6a3 3 0 0 0-6 0v7a1 1 0 0 0 2 0V6a1 1 0 0 1 2 0v7a3 3 0 1 1-6 0V6a5 5 0 0 1 10 0v7a7 7 0 1 1-14 0V6" />
  </symbol>
  <symbol id="icon-trophy" viewBox="0 0 24 24" fill="currentColor">
    <path d="M7 4V3h10v1a5 5 0 0 1-10 0zm13 2h-2a4 4 0 0 1-4 4v3h4v2H6v-2h4v-3a4 4 0 0 1-4-4H4a2 2 0 0 0-2 2v1a4 4 0 0 0 4 4v2h12v-2a4 4 0 0 0 4-4v-1a2 2 0 0 0-2-2z" />
  </symbol>
  <symbol id="icon-student" viewBox="0 0 24 24" fill="currentColor">
    <path d="M12 3l9 4-9 4-9-4 9-4zm0 7c4.97 0 9 2.24 9 5v3h-18v-3c0-2.76 4.03-5 9-5z" />
  </symbol>
  <symbol id="icon-shopper" viewBox="0 0 24 24" fill="currentColor">
    <path d="M7 18a2 2 0 1 0 0 4 2 2 0 0 0 0-4zm10 0a2 2 0 1 0 0 4 2 2 0 0 0 0-4zM5.2 6l1.6 7h10.4l1.6-7H5.2zM3 2h2l1 4h12l1.1-4H21v2H3V2z" />
  </symbol>
  <symbol id="icon-store" viewBox="0 0 24 24" fill="currentColor">
    <path d="M3 11l1-6h16l1 6-9 5-9-5zM5 20h14v-6l-7 4-7-4v6z" />
  </symbol>
  <symbol id="icon-bolt" viewBox="0 0 24 24" fill="currentColor">
    <path d="M13 2L3 14h7l-1 8 10-12h-7l1-8z" />
  </symbol>
  <symbol id="icon-attachment" viewBox="0 0 24 24" fill="currentColor">
    <path d="M21.44 11.05l-8.49 8.49a5 5 0 0 1-7.07-7.07l7.07-7.07a3 3 0 0 1 4.24 4.24L9.17 17.1a1 1 0 0 1-1.41-1.41l6.35-6.35" />
  </symbol>
  <symbol id="icon-sun" viewBox="0 0 24 24" fill="currentColor">
    <path d="M6.76 4.84l-1.8-1.79L3.17 4.84l1.79 1.8 1.8-1.8zM1 13h3v-2H1v2zm10 9h2v-3h-2v3zm7.04-17.04l1.79-1.8-1.79-1.79-1.8 1.79 1.8 1.8zM20 11v2h3v-2h-3zM6.76 19.16l-1.8 1.79 1.8 1.8 1.79-1.8-1.79-1.79zM17.24 19.16l1.79 1.79 1.8-1.8-1.8-1.79-1.79 1.8zM12 6a6 6 0 1 0 0 12 6 6 0 0 0 0-12z" />
  </symbol>
  <symbol id="icon-moon" viewBox="0 0 24 24" fill="currentColor">
    <path d="M21 12.79A9 9 0 1 1 11.21 3 7 7 0 0 0 21 12.79z" />
  </symbol>
  <symbol id="icon-location" viewBox="0 0 24 24" fill="currentColor">
    <path d="M12 2C8.13 2 5 5.13 5 9c0 5.25 7 13 7 13s7-7.75 7-13c0-3.87-3.13-7-7-7zm0 9.5a2.5 2.5 0 1 1 0-5 2.5 2.5 0 0 1 0 5z" />
  </symbol>
  <symbol id="icon-clock" viewBox="0 0 24 24" fill="currentColor">
    <path d="M12 1a11 11 0 1 0 11 11A11 11 0 0 0 12 1zm1 12.59V6h-2v7l6 3.5 1-1.6z" />
  </symbol>
  <symbol id="icon-phone" viewBox="0 0 24 24" fill="currentColor">
    <path d="M6.62 10.79a15.05 15.05 0 0 0 6.59 6.59l2.2-2.2a1 1 0 0 1 1.02-.24 11.36 11.36 0 0 0 3.56.57 1 1 0 0 1 1 1v3.5a1 1 0 0 1-1 1A18 18 0 0 1 3 5a1 1 0 0 1 1-1h3.5a1 1 0 0 1 1 1 11.36 11.36 0 0 0 .57 3.56 1 1 0 0 1-.24 1.02l-2.21 2.21z" />
  </symbol>
  <symbol id="icon-books" viewBox="0 0 24 24" fill="currentColor">
    <path d="M4 6h16v2H4V6zm0 5h16v2H4v-2zm0 5h16v2H4v-2z" />
  </symbol>
  <symbol id="icon-groceries" viewBox="0 0 24 24" fill="currentColor">
    <path d="M7 18a2 2 0 1 0 0 4 2 2 0 0 0 0-4zm10 0a2 2 0 1 0 0 4 2 2 0 0 0 0-4zM5.2 6l1.6 7h10.4l1.6-7H5.2zM3 2h2l1 4h12l1.1-4H21v2H3V2z" />
  </symbol>
  <symbol id="icon-electronics" viewBox="0 0 24 24" fill="currentColor">
    <path d="M4 3h16a1 1 0 0 1 1 1v12a1 1 0 0 1-1 1h-6v2h2v1H8v-1h2v-2H4a1 1 0 0 1-1-1V4a1 1 0 0 1 1-1zm0 2v10h16V5H4z" />
  </symbol>
  <symbol id="icon-clothing" viewBox="0 0 24 24" fill="currentColor">
    <path d="M8 1h8l3 6v15a1 1 0 0 1-1 1H6a1 1 0 0 1-1-1V7l3-6zm0 2l-2 4h12l-2-4H8zm2 8v8h2v-8h-2zm4 0v8h2v-8h-2z" />
  </symbol>
  <symbol id="icon-medicine" viewBox="0 0 24 24" fill="currentColor">
    <path d="M11 3h2v8h8v2h-8v8h-2v-8H3v-2h8V3z" />
  </symbol>
  <symbol id="icon-printer" viewBox="0 0 24 24" fill="currentColor">
    <path d="M6 4h12a2 2 0 0 1 2 2v5h-2V6H6v12h8v2H6a2 2 0 0 1-2-2V6a2 2 0 0 1 2-2zm0 12h12v3H6v-3zm2-4h8v2H8v-2z" />
  </symbol>
</svg>
